<?xml version="1.0" encoding="UTF-8" standalone="no"?>
<!-- Created with Inkscape (http://www.inkscape.org/) -->

<svg
   xmlns:dc="http://purl.org/dc/elements/1.1/"
   xmlns:cc="http://creativecommons.org/ns#"
   xmlns:rdf="http://www.w3.org/1999/02/22-rdf-syntax-ns#"
   xmlns:svg="http://www.w3.org/2000/svg"
   xmlns="http://www.w3.org/2000/svg"
   xmlns:sodipodi="http://sodipodi.sourceforge.net/DTD/sodipodi-0.dtd"
   xmlns:inkscape="http://www.inkscape.org/namespaces/inkscape"
   version="1.1"
   id="svg815"
   xml:space="preserve"
   width="800"
   height="800"
   viewBox="0 0 800 800"
   sodipodi:docname="wedding-rings.svg"
   inkscape:version="0.92.4 (5da689c313, 2019-01-14)"><metadata
     id="metadata821"><rdf:RDF><cc:Work
         rdf:about=""><dc:format>image/svg+xml</dc:format><dc:type
           rdf:resource="http://purl.org/dc/dcmitype/StillImage" /><dc:title></dc:title></cc:Work></rdf:RDF></metadata><defs
     id="defs819"><clipPath
       clipPathUnits="userSpaceOnUse"
       id="clipPath831"><path
         d="M 0,600 H 600 V 0 H 0 Z"
         id="path829"
         inkscape:connector-curvature="0" /></clipPath></defs><sodipodi:namedview
     pagecolor="#ffffff"
     bordercolor="#666666"
     borderopacity="1"
     objecttolerance="10"
     gridtolerance="10"
     guidetolerance="10"
     inkscape:pageopacity="0"
     inkscape:pageshadow="2"
     inkscape:window-width="1920"
     inkscape:window-height="1018"
     id="namedview817"
     showgrid="false"
     inkscape:zoom="1.06125"
     inkscape:cx="400"
     inkscape:cy="400"
     inkscape:window-x="-8"
     inkscape:window-y="-8"
     inkscape:window-maximized="1"
     inkscape:current-layer="g823" /><g
     id="g823"
     inkscape:groupmode="layer"
     inkscape:label="wedding-ringsy-publicdomainvectors.org"
     transform="matrix(1.3333333,0,0,-1.3333333,0,800)"><g
       id="g825"><g
         id="g827"
         clip-path="url(#clipPath831)"><path
           d="m 468.303,230.515 c 0,58.651 -47.392,106.395 -105.882,107.097 -1.415,-61.738 -39.827,-114.477 -93.91,-136.849 -0.98,2.31 -1.792,4.701 -2.604,7.088 2.98,1.326 5.926,2.722 8.788,4.254 18.948,10.469 35.007,25.198 46.709,42.118 11.536,17.101 18.394,36.197 20.903,54.938 0.873,4.717 0.93,9.255 1.12,13.74 0.341,4.329 0.011,8.931 -0.178,13.155 -1.283,-0.212 -2.592,-0.348 -3.853,-0.607 0.095,-4.124 0.331,-8.043 -0.094,-12.336 -0.26,-4.485 -0.424,-9.08 -1.355,-13.457 -2.72,-17.81 -9.78,-36.133 -20.855,-52.481 -11.348,-16.172 -26.854,-30.199 -45.061,-40.122 -2.552,-1.349 -5.18,-2.591 -7.846,-3.77 -2.663,9.326 -4.171,19.13 -4.171,29.298 0,0.276 0.036,0.547 0.036,0.825 32.333,16.401 55.51,48.287 59.564,85.892 -21.706,-9.161 -39.71,-25.315 -51.364,-45.576 -9.024,-15.696 -14.269,-33.835 -14.269,-53.207 0,-59.085 48.077,-107.159 107.156,-107.159 44.514,0 82.752,27.294 98.918,66.02 5.301,12.677 8.248,26.57 8.248,41.139 m 23.625,-2.816 c 0.33,-6.032 0.507,-9.249 0.507,-9.249 0,0 -0.177,-3.216 -0.507,-9.25 -0.036,-3.027 -0.578,-6.71 -1.309,-11.029 -0.377,-2.156 -0.624,-4.5 -1.179,-6.94 -0.636,-2.426 -1.306,-5.007 -2.026,-7.73 -3.099,-10.763 -7.918,-23.796 -16.897,-36.686 -8.779,-12.89 -20.974,-26.145 -37.187,-36.421 -16.154,-10.221 -36.008,-17.577 -57.631,-19.677 -5.349,-0.354 -11.015,-0.572 -16.333,-0.419 -5.63,0.471 -11.546,0.565 -16.928,1.798 -11.032,1.573 -22.176,5.455 -32.782,10.209 -10.652,4.88 -20.478,11.695 -29.623,19.377 -8.992,7.912 -16.908,17.132 -23.671,27.231 -6.538,10.269 -11.523,21.503 -15.259,33.169 -3.464,11.789 -4.983,24.065 -5.231,36.368 0.424,5.733 0.27,12.98 1.451,18.541 0.622,5.919 2.295,11.877 3.793,17.822 3.723,11.67 8.741,22.888 15.269,33.157 6.764,10.092 14.67,19.329 23.674,27.218 9.142,7.677 18.968,14.493 29.621,19.376 21.221,9.934 44.329,13.528 66.138,11.579 21.373,-2.075 41.405,-9.442 57.512,-19.656 16.202,-10.267 28.408,-23.512 37.176,-36.409 8.978,-12.884 13.809,-25.916 16.908,-36.68 0.72,-2.721 1.39,-5.301 2.026,-7.73 0.555,-2.444 0.802,-4.79 1.179,-6.939 0.731,-4.319 1.273,-8.002 1.309,-11.03 m 0.507,-9.249 c 0,0 -0.155,3.217 -0.426,9.256 0,3.027 -0.519,6.716 -1.214,11.046 -0.353,2.163 -0.588,4.513 -1.118,6.97 -0.613,2.439 -1.26,5.024 -1.956,7.764 -3.028,10.818 -7.778,23.885 -16.391,37.132 -8.472,13.264 -20.538,26.81 -36.503,38.104 -16.072,11.139 -35.973,19.633 -58.644,22.823 -22.105,2.962 -46.943,0.358 -69.932,-9.259 -11.583,-4.717 -22.433,-11.52 -32.65,-19.391 -10.016,-8.179 -18.808,-18 -26.443,-28.78 -7.469,-10.941 -13.148,-23.143 -17.272,-35.903 -1.721,-6.482 -3.584,-12.915 -4.385,-19.824 -1.354,-7.106 -1.2,-12.827 -1.684,-19.938 0.365,-13.462 2.168,-26.901 6.082,-39.762 4.098,-12.76 9.825,-24.944 17.284,-35.885 7.635,-10.775 16.415,-20.615 26.44,-28.762 10.215,-7.87 21.068,-14.676 32.64,-19.395 11.605,-4.601 23.296,-8.13 35.384,-9.338 6.056,-1.042 11.701,-0.855 17.403,-1.095 6.022,0.081 11.607,0.564 17.251,1.178 22.423,3.163 42.502,11.665 58.514,22.8 15.965,11.292 28.043,24.827 36.515,38.088 8.613,13.249 13.363,26.317 16.391,37.141 0.696,2.732 1.343,5.32 1.956,7.758 0.53,2.457 0.765,4.808 1.118,6.969 0.695,4.331 1.214,8.019 1.214,11.053 0.271,6.034 0.426,9.25 0.426,9.25 m 24.13,12.065 c 0,-22.545 -4.866,-43.961 -13.539,-63.322 -24.296,-54.218 -78.733,-92.101 -141.889,-92.101 -71.429,0 -131.725,48.458 -149.831,114.218 -0.212,0 -0.414,-0.017 -0.626,-0.017 -83.72,0 -151.825,68.11 -151.825,151.829 0,49.583 23.896,93.693 60.778,121.418 l 24.497,-23.855 c -0.742,-0.44 -1.557,-0.926 -2.498,-1.485 -2.17,-1.289 -4.856,-2.88 -8.002,-4.752 -2.886,-2.275 -6.196,-4.885 -9.898,-7.807 -3.9,-2.727 -7.305,-6.747 -11.311,-10.806 -4.217,-3.9 -7.694,-9.024 -11.629,-14.345 -0.979,-1.332 -1.969,-2.687 -2.981,-4.067 -0.827,-1.487 -1.675,-2.997 -2.523,-4.535 -1.698,-3.087 -3.428,-6.264 -5.221,-9.522 -1.717,-3.299 -2.769,-7 -4.229,-10.615 -1.343,-3.67 -2.982,-7.343 -3.652,-11.431 -0.897,-4.025 -1.814,-8.123 -2.744,-12.31 -0.637,-4.185 -0.768,-8.446 -1.181,-12.783 -0.163,-2.212 -0.328,-4.446 -0.495,-6.697 0.095,-2.244 0.191,-4.507 0.283,-6.787 0.119,-2.274 0.13,-4.576 0.342,-6.879 0.332,-2.3 0.66,-4.609 1.002,-6.929 2.864,-18.524 9.781,-37.771 21.893,-54.467 11.961,-16.679 28.091,-31.42 47.345,-41.342 4.913,-2.262 9.683,-4.912 14.881,-6.562 l 7.706,-2.762 7.942,-2.039 c 5.231,-1.604 10.852,-2.016 16.308,-2.963 4.795,-0.495 9.32,-0.696 14.161,-0.832 -0.459,2.003 -0.871,4.018 -1.247,6.051 -4.135,0.117 -8.46,0.288 -12.513,0.7 -5.125,0.896 -10.299,1.196 -15.354,2.717 l -7.612,1.897 -7.387,2.605 c -4.999,1.537 -9.58,4.057 -14.294,6.19 -18.511,9.38 -34.076,23.431 -45.671,39.374 -11.654,15.995 -18.699,34.293 -21.81,52.135 -0.377,2.243 -0.742,4.468 -1.109,6.679 -0.234,2.222 -0.291,4.455 -0.458,6.653 -0.129,2.209 -0.271,4.393 -0.4,6.568 0.117,2.158 0.247,4.295 0.363,6.422 0.332,4.317 0.379,8.647 0.921,12.748 0.826,4.025 1.636,7.972 2.427,11.835 0.565,3.932 2.097,7.55 3.334,11.149 1.355,3.558 2.334,7.187 3.889,10.464 1.651,3.24 3.252,6.396 4.807,9.471 0.791,1.533 1.568,3.046 2.334,4.537 0.953,1.379 1.884,2.735 2.816,4.072 3.688,5.338 6.951,10.515 10.992,14.48 3.829,4.13 7.069,8.225 10.843,11.042 3.58,3.035 6.773,5.743 9.543,8.1 3.064,1.991 5.656,3.689 7.765,5.067 0.93,0.614 1.732,1.131 2.474,1.614 l 6.138,-5.969 c -29.694,-19.629 -49.335,-53.268 -49.335,-91.447 0,-58.767 46.519,-106.741 104.655,-109.351 0.226,26.872 7.285,52.133 19.55,74.131 26.558,47.69 77.486,80.037 135.847,80.037 85.709,0 155.428,-69.719 155.428,-155.424 M 263.621,533.583 h -53.306 l 32.826,-39.796 z m -61.143,0 H 153.59 l 16.014,-39.448 z M 310.47,491.182 269.252,531.167 248.68,491.182 Z m -161.887,38.547 -40.167,-38.547 h 55.803 z m 74.516,-130.58 88.135,86.944 h -65.183 z m -114.521,86.944 86.229,-85.443 -28.291,85.443 z m 128.755,5.089 -30.943,37.506 -31.248,-37.506 z m -27.654,-101.431 4.982,2.994 25.158,93.348 h -66.94 l 31.377,-92.899 z m 91.823,72.966 c 22.246,-16.662 39.745,-39.303 50.196,-65.485 -9.002,-0.893 -17.77,-2.591 -26.253,-4.965 -0.847,-0.238 -1.697,-0.465 -2.534,-0.72 -4.348,-1.288 -8.612,-2.779 -12.795,-4.436 -8.627,18.555 -22.294,34.314 -39.237,45.5"
           style="fill:#50311a;fill-opacity:1;fill-rule:nonzero;stroke:none"
           id="path833"
           inkscape:connector-curvature="0" /></g></g></g></svg>